<?xml version="1.0" encoding="UTF-8"?>
<!DOCTYPE svg PUBLIC "-//W3C//DTD SVG 1.1//EN" "http://www.w3.org/Graphics/SVG/1.1/DTD/svg11.dtd">
<svg version="1.2" width="25.43mm" height="25.14mm" viewBox="5172 7401 2543 2514" preserveAspectRatio="xMidYMid" fill-rule="evenodd" stroke-width="28.222" stroke-linejoin="round" xmlns="http://www.w3.org/2000/svg" xmlns:ooo="http://xml.openoffice.org/svg/export" xmlns:xlink="http://www.w3.org/1999/xlink" xmlns:presentation="http://sun.com/xmlns/staroffice/presentation" xmlns:smil="http://www.w3.org/2001/SMIL20/" xmlns:anim="urn:oasis:names:tc:opendocument:xmlns:animation:1.0" xml:space="preserve">
 <defs class="ClipPathGroup">
  <clipPath id="presentation_clip_path" clipPathUnits="userSpaceOnUse">
   <rect x="5172" y="7401" width="2543" height="2514"/>
  </clipPath>
 </defs>
 <defs class="TextShapeIndex">
  <g ooo:slide="id1" ooo:id-list="id3 id4 id5"/>
 </defs>
 <defs class="EmbeddedBulletChars">
  <g id="bullet-char-template(57356)" transform="scale(0.00048828125,-0.00048828125)">
   <path d="M 580,1141 L 1163,571 580,0 -4,571 580,1141 Z"/>
  </g>
  <g id="bullet-char-template(57354)" transform="scale(0.00048828125,-0.00048828125)">
   <path d="M 8,1128 L 1137,1128 1137,0 8,0 8,1128 Z"/>
  </g>
  <g id="bullet-char-template(10146)" transform="scale(0.00048828125,-0.00048828125)">
   <path d="M 174,0 L 602,739 174,1481 1456,739 174,0 Z M 1358,739 L 309,1346 659,739 1358,739 Z"/>
  </g>
  <g id="bullet-char-template(10132)" transform="scale(0.00048828125,-0.00048828125)">
   <path d="M 2015,739 L 1276,0 717,0 1260,543 174,543 174,936 1260,936 717,1481 1274,1481 2015,739 Z"/>
  </g>
  <g id="bullet-char-template(10007)" transform="scale(0.00048828125,-0.00048828125)">
   <path d="M 0,-2 C -7,14 -16,27 -25,37 L 356,567 C 262,823 215,952 215,954 215,979 228,992 255,992 264,992 276,990 289,987 310,991 331,999 354,1012 L 381,999 492,748 772,1049 836,1024 860,1049 C 881,1039 901,1025 922,1006 886,937 835,863 770,784 769,783 710,716 594,584 L 774,223 C 774,196 753,168 711,139 L 727,119 C 717,90 699,76 672,76 641,76 570,178 457,381 L 164,-76 C 142,-110 111,-127 72,-127 30,-127 9,-110 8,-76 1,-67 -2,-52 -2,-32 -2,-23 -1,-13 0,-2 Z"/>
  </g>
  <g id="bullet-char-template(10004)" transform="scale(0.00048828125,-0.00048828125)">
   <path d="M 285,-33 C 182,-33 111,30 74,156 52,228 41,333 41,471 41,549 55,616 82,672 116,743 169,778 240,778 293,778 328,747 346,684 L 369,508 C 377,444 397,411 428,410 L 1163,1116 C 1174,1127 1196,1133 1229,1133 1271,1133 1292,1118 1292,1087 L 1292,965 C 1292,929 1282,901 1262,881 L 442,47 C 390,-6 338,-33 285,-33 Z"/>
  </g>
  <g id="bullet-char-template(9679)" transform="scale(0.00048828125,-0.00048828125)">
   <path d="M 813,0 C 632,0 489,54 383,161 276,268 223,411 223,592 223,773 276,916 383,1023 489,1130 632,1184 813,1184 992,1184 1136,1130 1245,1023 1353,916 1407,772 1407,592 1407,412 1353,268 1245,161 1136,54 992,0 813,0 Z"/>
  </g>
  <g id="bullet-char-template(8226)" transform="scale(0.00048828125,-0.00048828125)">
   <path d="M 346,457 C 273,457 209,483 155,535 101,586 74,649 74,723 74,796 101,859 155,911 209,963 273,989 346,989 419,989 480,963 531,910 582,859 608,796 608,723 608,648 583,586 532,535 482,483 420,457 346,457 Z"/>
  </g>
  <g id="bullet-char-template(8211)" transform="scale(0.00048828125,-0.00048828125)">
   <path d="M -4,459 L 1135,459 1135,606 -4,606 -4,459 Z"/>
  </g>
 </defs>
 <defs class="TextEmbeddedBitmaps"/>
 <g class="SlideGroup">
  <g>
   <g id="id1" class="Slide" clip-path="url(#presentation_clip_path)">
    <g class="Page">
     <g class="Group">
      <g class="com.sun.star.drawing.CustomShape">
       <g id="id3">
        <rect class="BoundingBox" stroke="none" fill="none" x="5171" y="7400" width="2545" height="745"/>
        <defs>
         <mask id="mask1">
          <g>
           <defs>
            <linearGradient id="gradient1" x1="6513" y1="7529" x2="6513" y2="8156" gradientUnits="userSpaceOnUse">
             <stop offset="0.5" style="stop-color:rgb(135,135,135)"/>
             <stop offset="0.5" style="stop-color:rgb(135,135,135)"/>
             <stop offset="1" style="stop-color:rgb(135,135,135)"/>
             <stop offset="1" style="stop-color:rgb(135,135,135)"/>
            </linearGradient>
           </defs>
           <path style="fill:url(#gradient1)" d="M 5300,7529 L 7727,7529 7727,8156 5300,8156 5300,7529 Z"/>
          </g>
         </mask>
        </defs>
        <g style="mask:url(#mask1)">
         <path fill="rgb(255,204,153)" stroke="none" d="M 5413,7542 C 5363,7542 5313,7592 5313,7642 L 5313,8042 C 5313,8092 5363,8143 5413,8143 L 7613,8143 C 7663,8143 7714,8092 7714,8042 L 7714,7642 C 7714,7592 7663,7542 7613,7542 L 5413,7542 Z M 5313,7542 L 5313,7542 Z M 7714,8143 L 7714,8143 Z"/>
         <defs>
          <mask id="mask2">
           <g>
            <defs>
             <linearGradient id="gradient2" x1="6513" y1="7529" x2="6513" y2="8156" gradientUnits="userSpaceOnUse">
              <stop offset="0.5" style="stop-color:rgb(128,128,128)"/>
              <stop offset="0.5" style="stop-color:rgb(128,128,128)"/>
              <stop offset="1" style="stop-color:rgb(128,128,128)"/>
              <stop offset="1" style="stop-color:rgb(128,128,128)"/>
             </linearGradient>
            </defs>
            <path style="fill:url(#gradient2)" d="M 5300,7529 L 7727,7529 7727,8156 5300,8156 5300,7529 Z"/>
           </g>
          </mask>
         </defs>
         <g style="mask:url(#mask2)">
          <path fill="none" stroke="rgb(255,204,153)" d="M 5413,7542 C 5363,7542 5313,7592 5313,7642 L 5313,8042 C 5313,8092 5363,8143 5413,8143 L 7613,8143 C 7663,8143 7714,8092 7714,8042 L 7714,7642 C 7714,7592 7663,7542 7613,7542 L 5413,7542 Z"/>
         </g>
         <defs>
          <mask id="mask3">
           <g>
            <defs>
             <linearGradient id="gradient3" x1="5313" y1="7529" x2="5313" y2="7555" gradientUnits="userSpaceOnUse">
              <stop offset="0.5" style="stop-color:rgb(128,128,128)"/>
              <stop offset="0.5" style="stop-color:rgb(128,128,128)"/>
              <stop offset="1" style="stop-color:rgb(128,128,128)"/>
              <stop offset="1" style="stop-color:rgb(128,128,128)"/>
             </linearGradient>
            </defs>
            <path style="fill:url(#gradient3)" d="M 5300,7529 L 5326,7529 5326,7555 5300,7555 5300,7529 Z"/>
           </g>
          </mask>
         </defs>
         <g style="mask:url(#mask3)">
          <path fill="none" stroke="rgb(255,204,153)" d="M 5313,7542 L 5313,7542 Z"/>
         </g>
         <defs>
          <mask id="mask4">
           <g>
            <defs>
             <linearGradient id="gradient4" x1="7714" y1="8130" x2="7714" y2="8156" gradientUnits="userSpaceOnUse">
              <stop offset="0.5" style="stop-color:rgb(128,128,128)"/>
              <stop offset="0.5" style="stop-color:rgb(128,128,128)"/>
              <stop offset="1" style="stop-color:rgb(128,128,128)"/>
              <stop offset="1" style="stop-color:rgb(128,128,128)"/>
             </linearGradient>
            </defs>
            <path style="fill:url(#gradient4)" d="M 7701,8130 L 7727,8130 7727,8156 7701,8156 7701,8130 Z"/>
           </g>
          </mask>
         </defs>
         <g style="mask:url(#mask4)">
          <path fill="none" stroke="rgb(255,204,153)" d="M 7714,8143 L 7714,8143 Z"/>
         </g>
        </g>
        <path fill="rgb(204,153,0)" stroke="none" d="M 5272,7401 C 5222,7401 5172,7451 5172,7501 L 5172,7901 C 5172,7951 5222,8002 5272,8002 L 7472,8002 C 7522,8002 7573,7951 7573,7901 L 7573,7501 C 7573,7451 7522,7401 7472,7401 L 5272,7401 Z M 5172,7401 L 5172,7401 Z M 7573,8002 L 7573,8002 Z"/>
        <defs>
         <mask id="mask5">
          <g>
           <defs>
            <linearGradient id="gradient5" x1="6372" y1="7388" x2="6372" y2="8015" gradientUnits="userSpaceOnUse">
             <stop offset="0.5" style="stop-color:rgb(128,128,128)"/>
             <stop offset="0.5" style="stop-color:rgb(128,128,128)"/>
             <stop offset="1" style="stop-color:rgb(128,128,128)"/>
             <stop offset="1" style="stop-color:rgb(128,128,128)"/>
            </linearGradient>
           </defs>
           <path style="fill:url(#gradient5)" d="M 5159,7388 L 7586,7388 7586,8015 5159,8015 5159,7388 Z"/>
          </g>
         </mask>
        </defs>
        <g style="mask:url(#mask5)">
         <path fill="none" stroke="rgb(153,102,0)" d="M 5272,7401 C 5222,7401 5172,7451 5172,7501 L 5172,7901 C 5172,7951 5222,8002 5272,8002 L 7472,8002 C 7522,8002 7573,7951 7573,7901 L 7573,7501 C 7573,7451 7522,7401 7472,7401 L 5272,7401 Z"/>
        </g>
        <defs>
         <mask id="mask6">
          <g>
           <defs>
            <linearGradient id="gradient6" x1="5172" y1="7388" x2="5172" y2="7414" gradientUnits="userSpaceOnUse">
             <stop offset="0.5" style="stop-color:rgb(128,128,128)"/>
             <stop offset="0.5" style="stop-color:rgb(128,128,128)"/>
             <stop offset="1" style="stop-color:rgb(128,128,128)"/>
             <stop offset="1" style="stop-color:rgb(128,128,128)"/>
            </linearGradient>
           </defs>
           <path style="fill:url(#gradient6)" d="M 5159,7388 L 5185,7388 5185,7414 5159,7414 5159,7388 Z"/>
          </g>
         </mask>
        </defs>
        <g style="mask:url(#mask6)">
         <path fill="none" stroke="rgb(153,102,0)" d="M 5172,7401 L 5172,7401 Z"/>
        </g>
        <defs>
         <mask id="mask7">
          <g>
           <defs>
            <linearGradient id="gradient7" x1="7573" y1="7989" x2="7573" y2="8015" gradientUnits="userSpaceOnUse">
             <stop offset="0.5" style="stop-color:rgb(128,128,128)"/>
             <stop offset="0.5" style="stop-color:rgb(128,128,128)"/>
             <stop offset="1" style="stop-color:rgb(128,128,128)"/>
             <stop offset="1" style="stop-color:rgb(128,128,128)"/>
            </linearGradient>
           </defs>
           <path style="fill:url(#gradient7)" d="M 7560,7989 L 7586,7989 7586,8015 7560,8015 7560,7989 Z"/>
          </g>
         </mask>
        </defs>
        <g style="mask:url(#mask7)">
         <path fill="none" stroke="rgb(153,102,0)" d="M 7573,8002 L 7573,8002 Z"/>
        </g>
       </g>
      </g>
      <g class="com.sun.star.drawing.CustomShape">
       <g id="id4">
        <rect class="BoundingBox" stroke="none" fill="none" x="5171" y="8271" width="2545" height="745"/>
        <defs>
         <mask id="mask8">
          <g>
           <defs>
            <linearGradient id="gradient8" x1="6513" y1="8400" x2="6513" y2="9027" gradientUnits="userSpaceOnUse">
             <stop offset="0.5" style="stop-color:rgb(135,135,135)"/>
             <stop offset="0.5" style="stop-color:rgb(135,135,135)"/>
             <stop offset="1" style="stop-color:rgb(135,135,135)"/>
             <stop offset="1" style="stop-color:rgb(135,135,135)"/>
            </linearGradient>
           </defs>
           <path style="fill:url(#gradient8)" d="M 5300,8400 L 7727,8400 7727,9027 5300,9027 5300,8400 Z"/>
          </g>
         </mask>
        </defs>
        <g style="mask:url(#mask8)">
         <path fill="rgb(255,204,153)" stroke="none" d="M 5413,8413 C 5363,8413 5313,8463 5313,8513 L 5313,8913 C 5313,8963 5363,9014 5413,9014 L 7613,9014 C 7663,9014 7714,8963 7714,8913 L 7714,8513 C 7714,8463 7663,8413 7613,8413 L 5413,8413 Z M 5313,8413 L 5313,8413 Z M 7714,9014 L 7714,9014 Z"/>
         <defs>
          <mask id="mask9">
           <g>
            <defs>
             <linearGradient id="gradient9" x1="6513" y1="8400" x2="6513" y2="9027" gradientUnits="userSpaceOnUse">
              <stop offset="0.5" style="stop-color:rgb(128,128,128)"/>
              <stop offset="0.5" style="stop-color:rgb(128,128,128)"/>
              <stop offset="1" style="stop-color:rgb(128,128,128)"/>
              <stop offset="1" style="stop-color:rgb(128,128,128)"/>
             </linearGradient>
            </defs>
            <path style="fill:url(#gradient9)" d="M 5300,8400 L 7727,8400 7727,9027 5300,9027 5300,8400 Z"/>
           </g>
          </mask>
         </defs>
         <g style="mask:url(#mask9)">
          <path fill="none" stroke="rgb(255,204,153)" d="M 5413,8413 C 5363,8413 5313,8463 5313,8513 L 5313,8913 C 5313,8963 5363,9014 5413,9014 L 7613,9014 C 7663,9014 7714,8963 7714,8913 L 7714,8513 C 7714,8463 7663,8413 7613,8413 L 5413,8413 Z"/>
         </g>
         <defs>
          <mask id="mask10">
           <g>
            <defs>
             <linearGradient id="gradient10" x1="5313" y1="8400" x2="5313" y2="8426" gradientUnits="userSpaceOnUse">
              <stop offset="0.5" style="stop-color:rgb(128,128,128)"/>
              <stop offset="0.5" style="stop-color:rgb(128,128,128)"/>
              <stop offset="1" style="stop-color:rgb(128,128,128)"/>
              <stop offset="1" style="stop-color:rgb(128,128,128)"/>
             </linearGradient>
            </defs>
            <path style="fill:url(#gradient10)" d="M 5300,8400 L 5326,8400 5326,8426 5300,8426 5300,8400 Z"/>
           </g>
          </mask>
         </defs>
         <g style="mask:url(#mask10)">
          <path fill="none" stroke="rgb(255,204,153)" d="M 5313,8413 L 5313,8413 Z"/>
         </g>
         <defs>
          <mask id="mask11">
           <g>
            <defs>
             <linearGradient id="gradient11" x1="7714" y1="9001" x2="7714" y2="9027" gradientUnits="userSpaceOnUse">
              <stop offset="0.5" style="stop-color:rgb(128,128,128)"/>
              <stop offset="0.5" style="stop-color:rgb(128,128,128)"/>
              <stop offset="1" style="stop-color:rgb(128,128,128)"/>
              <stop offset="1" style="stop-color:rgb(128,128,128)"/>
             </linearGradient>
            </defs>
            <path style="fill:url(#gradient11)" d="M 7701,9001 L 7727,9001 7727,9027 7701,9027 7701,9001 Z"/>
           </g>
          </mask>
         </defs>
         <g style="mask:url(#mask11)">
          <path fill="none" stroke="rgb(255,204,153)" d="M 7714,9014 L 7714,9014 Z"/>
         </g>
        </g>
        <path fill="rgb(204,153,0)" stroke="none" d="M 5272,8272 C 5222,8272 5172,8322 5172,8372 L 5172,8772 C 5172,8822 5222,8873 5272,8873 L 7472,8873 C 7522,8873 7573,8822 7573,8772 L 7573,8372 C 7573,8322 7522,8272 7472,8272 L 5272,8272 Z M 5172,8272 L 5172,8272 Z M 7573,8873 L 7573,8873 Z"/>
        <defs>
         <mask id="mask12">
          <g>
           <defs>
            <linearGradient id="gradient12" x1="6372" y1="8259" x2="6372" y2="8886" gradientUnits="userSpaceOnUse">
             <stop offset="0.5" style="stop-color:rgb(128,128,128)"/>
             <stop offset="0.5" style="stop-color:rgb(128,128,128)"/>
             <stop offset="1" style="stop-color:rgb(128,128,128)"/>
             <stop offset="1" style="stop-color:rgb(128,128,128)"/>
            </linearGradient>
           </defs>
           <path style="fill:url(#gradient12)" d="M 5159,8259 L 7586,8259 7586,8886 5159,8886 5159,8259 Z"/>
          </g>
         </mask>
        </defs>
        <g style="mask:url(#mask12)">
         <path fill="none" stroke="rgb(153,102,0)" d="M 5272,8272 C 5222,8272 5172,8322 5172,8372 L 5172,8772 C 5172,8822 5222,8873 5272,8873 L 7472,8873 C 7522,8873 7573,8822 7573,8772 L 7573,8372 C 7573,8322 7522,8272 7472,8272 L 5272,8272 Z"/>
        </g>
        <defs>
         <mask id="mask13">
          <g>
           <defs>
            <linearGradient id="gradient13" x1="5172" y1="8259" x2="5172" y2="8285" gradientUnits="userSpaceOnUse">
             <stop offset="0.5" style="stop-color:rgb(128,128,128)"/>
             <stop offset="0.5" style="stop-color:rgb(128,128,128)"/>
             <stop offset="1" style="stop-color:rgb(128,128,128)"/>
             <stop offset="1" style="stop-color:rgb(128,128,128)"/>
            </linearGradient>
           </defs>
           <path style="fill:url(#gradient13)" d="M 5159,8259 L 5185,8259 5185,8285 5159,8285 5159,8259 Z"/>
          </g>
         </mask>
        </defs>
        <g style="mask:url(#mask13)">
         <path fill="none" stroke="rgb(153,102,0)" d="M 5172,8272 L 5172,8272 Z"/>
        </g>
        <defs>
         <mask id="mask14">
          <g>
           <defs>
            <linearGradient id="gradient14" x1="7573" y1="8860" x2="7573" y2="8886" gradientUnits="userSpaceOnUse">
             <stop offset="0.5" style="stop-color:rgb(128,128,128)"/>
             <stop offset="0.5" style="stop-color:rgb(128,128,128)"/>
             <stop offset="1" style="stop-color:rgb(128,128,128)"/>
             <stop offset="1" style="stop-color:rgb(128,128,128)"/>
            </linearGradient>
           </defs>
           <path style="fill:url(#gradient14)" d="M 7560,8860 L 7586,8860 7586,8886 7560,8886 7560,8860 Z"/>
          </g>
         </mask>
        </defs>
        <g style="mask:url(#mask14)">
         <path fill="none" stroke="rgb(153,102,0)" d="M 7573,8873 L 7573,8873 Z"/>
        </g>
       </g>
      </g>
      <g class="com.sun.star.drawing.CustomShape">
       <g id="id5">
        <rect class="BoundingBox" stroke="none" fill="none" x="5171" y="9171" width="2545" height="745"/>
        <defs>
         <mask id="mask15">
          <g>
           <defs>
            <linearGradient id="gradient15" x1="6513" y1="9300" x2="6513" y2="9927" gradientUnits="userSpaceOnUse">
             <stop offset="0.5" style="stop-color:rgb(135,135,135)"/>
             <stop offset="0.5" style="stop-color:rgb(135,135,135)"/>
             <stop offset="1" style="stop-color:rgb(135,135,135)"/>
             <stop offset="1" style="stop-color:rgb(135,135,135)"/>
            </linearGradient>
           </defs>
           <path style="fill:url(#gradient15)" d="M 5300,9300 L 7727,9300 7727,9927 5300,9927 5300,9300 Z"/>
          </g>
         </mask>
        </defs>
        <g style="mask:url(#mask15)">
         <path fill="rgb(255,204,153)" stroke="none" d="M 5413,9313 C 5363,9313 5313,9363 5313,9413 L 5313,9813 C 5313,9863 5363,9914 5413,9914 L 7613,9914 C 7663,9914 7714,9863 7714,9813 L 7714,9413 C 7714,9363 7663,9313 7613,9313 L 5413,9313 Z M 5313,9313 L 5313,9313 Z M 7714,9914 L 7714,9914 Z"/>
         <defs>
          <mask id="mask16">
           <g>
            <defs>
             <linearGradient id="gradient16" x1="6513" y1="9300" x2="6513" y2="9927" gradientUnits="userSpaceOnUse">
              <stop offset="0.5" style="stop-color:rgb(128,128,128)"/>
              <stop offset="0.5" style="stop-color:rgb(128,128,128)"/>
              <stop offset="1" style="stop-color:rgb(128,128,128)"/>
              <stop offset="1" style="stop-color:rgb(128,128,128)"/>
             </linearGradient>
            </defs>
            <path style="fill:url(#gradient16)" d="M 5300,9300 L 7727,9300 7727,9927 5300,9927 5300,9300 Z"/>
           </g>
          </mask>
         </defs>
         <g style="mask:url(#mask16)">
          <path fill="none" stroke="rgb(255,204,153)" d="M 5413,9313 C 5363,9313 5313,9363 5313,9413 L 5313,9813 C 5313,9863 5363,9914 5413,9914 L 7613,9914 C 7663,9914 7714,9863 7714,9813 L 7714,9413 C 7714,9363 7663,9313 7613,9313 L 5413,9313 Z"/>
         </g>
         <defs>
          <mask id="mask17">
           <g>
            <defs>
             <linearGradient id="gradient17" x1="5313" y1="9300" x2="5313" y2="9326" gradientUnits="userSpaceOnUse">
              <stop offset="0.5" style="stop-color:rgb(128,128,128)"/>
              <stop offset="0.5" style="stop-color:rgb(128,128,128)"/>
              <stop offset="1" style="stop-color:rgb(128,128,128)"/>
              <stop offset="1" style="stop-color:rgb(128,128,128)"/>
             </linearGradient>
            </defs>
            <path style="fill:url(#gradient17)" d="M 5300,9300 L 5326,9300 5326,9326 5300,9326 5300,9300 Z"/>
           </g>
          </mask>
         </defs>
         <g style="mask:url(#mask17)">
          <path fill="none" stroke="rgb(255,204,153)" d="M 5313,9313 L 5313,9313 Z"/>
         </g>
         <defs>
          <mask id="mask18">
           <g>
            <defs>
             <linearGradient id="gradient18" x1="7714" y1="9901" x2="7714" y2="9927" gradientUnits="userSpaceOnUse">
              <stop offset="0.5" style="stop-color:rgb(128,128,128)"/>
              <stop offset="0.5" style="stop-color:rgb(128,128,128)"/>
              <stop offset="1" style="stop-color:rgb(128,128,128)"/>
              <stop offset="1" style="stop-color:rgb(128,128,128)"/>
             </linearGradient>
            </defs>
            <path style="fill:url(#gradient18)" d="M 7701,9901 L 7727,9901 7727,9927 7701,9927 7701,9901 Z"/>
           </g>
          </mask>
         </defs>
         <g style="mask:url(#mask18)">
          <path fill="none" stroke="rgb(255,204,153)" d="M 7714,9914 L 7714,9914 Z"/>
         </g>
        </g>
        <path fill="rgb(204,153,0)" stroke="none" d="M 5272,9172 C 5222,9172 5172,9222 5172,9272 L 5172,9672 C 5172,9722 5222,9773 5272,9773 L 7472,9773 C 7522,9773 7573,9722 7573,9672 L 7573,9272 C 7573,9222 7522,9172 7472,9172 L 5272,9172 Z M 5172,9172 L 5172,9172 Z M 7573,9773 L 7573,9773 Z"/>
        <defs>
         <mask id="mask19">
          <g>
           <defs>
            <linearGradient id="gradient19" x1="6372" y1="9159" x2="6372" y2="9786" gradientUnits="userSpaceOnUse">
             <stop offset="0.5" style="stop-color:rgb(128,128,128)"/>
             <stop offset="0.5" style="stop-color:rgb(128,128,128)"/>
             <stop offset="1" style="stop-color:rgb(128,128,128)"/>
             <stop offset="1" style="stop-color:rgb(128,128,128)"/>
            </linearGradient>
           </defs>
           <path style="fill:url(#gradient19)" d="M 5159,9159 L 7586,9159 7586,9786 5159,9786 5159,9159 Z"/>
          </g>
         </mask>
        </defs>
        <g style="mask:url(#mask19)">
         <path fill="none" stroke="rgb(153,102,0)" d="M 5272,9172 C 5222,9172 5172,9222 5172,9272 L 5172,9672 C 5172,9722 5222,9773 5272,9773 L 7472,9773 C 7522,9773 7573,9722 7573,9672 L 7573,9272 C 7573,9222 7522,9172 7472,9172 L 5272,9172 Z"/>
        </g>
        <defs>
         <mask id="mask20">
          <g>
           <defs>
            <linearGradient id="gradient20" x1="5172" y1="9159" x2="5172" y2="9185" gradientUnits="userSpaceOnUse">
             <stop offset="0.5" style="stop-color:rgb(128,128,128)"/>
             <stop offset="0.5" style="stop-color:rgb(128,128,128)"/>
             <stop offset="1" style="stop-color:rgb(128,128,128)"/>
             <stop offset="1" style="stop-color:rgb(128,128,128)"/>
            </linearGradient>
           </defs>
           <path style="fill:url(#gradient20)" d="M 5159,9159 L 5185,9159 5185,9185 5159,9185 5159,9159 Z"/>
          </g>
         </mask>
        </defs>
        <g style="mask:url(#mask20)">
         <path fill="none" stroke="rgb(153,102,0)" d="M 5172,9172 L 5172,9172 Z"/>
        </g>
        <defs>
         <mask id="mask21">
          <g>
           <defs>
            <linearGradient id="gradient21" x1="7573" y1="9760" x2="7573" y2="9786" gradientUnits="userSpaceOnUse">
             <stop offset="0.5" style="stop-color:rgb(128,128,128)"/>
             <stop offset="0.5" style="stop-color:rgb(128,128,128)"/>
             <stop offset="1" style="stop-color:rgb(128,128,128)"/>
             <stop offset="1" style="stop-color:rgb(128,128,128)"/>
            </linearGradient>
           </defs>
           <path style="fill:url(#gradient21)" d="M 7560,9760 L 7586,9760 7586,9786 7560,9786 7560,9760 Z"/>
          </g>
         </mask>
        </defs>
        <g style="mask:url(#mask21)">
         <path fill="none" stroke="rgb(153,102,0)" d="M 7573,9773 L 7573,9773 Z"/>
        </g>
       </g>
      </g>
     </g>
    </g>
   </g>
  </g>
 </g>
</svg>
